<?xml version="1.0" encoding="UTF-8"?>
<svg xmlns="http://www.w3.org/2000/svg" viewBox="0 0 247.8 90">
  <g fill-rule="evenodd" clip-rule="evenodd">
    <path fill="#BDD4DE" d="M18.5 53L37 90H0m72.5-37L91 90H54M27 53h37L45.5 90 27 53z"></path>
    <path fill="#FF530D" d="M69 47H22l23-14 24 14z"></path>
    <path fill="#FF763E" d="M69 47L45 33V0l24 47z"></path>
    <path fill="#FF956A" d="M22 47l23-14V0L22 47z"></path>
    <path fill="#3F5765" d="M138.5 30V12.1h-1.6v7.4h-.1c-.7-1.9-2.6-2.8-4.5-2.8-3.9 0-5.8 3.2-5.8 6.8s1.9 6.8 5.8 6.8c1.9 0 3.9-1.1 4.6-2.8h.1V30h1.5zm-1.6-6.5c0 2.7-1.2 5.5-4.5 5.5-3 0-4.2-2.8-4.2-5.5s1.2-5.5 4.2-5.5c3.4 0 4.5 2.9 4.5 5.5zm16.2 6.5V17.1h-1.6v6.8c0 2.6-1.2 5.2-3.9 5.2-2.5 0-3.4-1.2-3.4-3.5v-8.4h-1.6v8.4c0 3 1.3 4.9 4.5 4.9 1.9 0 3.6-1 4.4-2.7h.1V30h1.5zm14.9-4.6h-1.6c-.2 2.1-1.8 3.7-3.8 3.7-3 0-4.5-2.8-4.5-5.5s1.5-5.5 4.5-5.5c2.1 0 3.2 1.2 3.6 3.1h1.6c-.4-3-2.5-4.4-5.2-4.4-3.9 0-6.1 3.1-6.1 6.8s2.1 6.8 6.1 6.8c2.9 0 5-1.9 5.4-5zm14.6 4.5v-1.3c-.1 0-.3.1-.5.1-.6 0-.9-.4-.9-1v-6.9c0-3.5-2.5-4.1-4.8-4.1-2.9 0-5.1 1.3-5.2 4.3h1.6c.1-2.1 1.5-3 3.4-3s3.4.5 3.4 2.6c0 1.4-.7 1.6-2 1.8-3.4.4-6.9.5-6.9 4.1 0 2.6 1.9 3.8 4.3 3.8 2.5 0 3.6-1 4.7-2.6h.1c0 1.4.2 2.2 1.9 2.2.2.1.6.1.9 0zm-3-4.9c0 2.5-2.1 4-4.5 4-1.5 0-2.9-1-2.9-2.5 0-2.5 3.3-2.5 6-3 .4-.1 1.1-.2 1.3-.6h.1V25zm11 5.1v-1.4c-.4 0-.9.1-1.4.1-1.1 0-1.3-.7-1.3-1.7v-8.7h2.6v-1.3H188v-3.9h-1.6v3.9h-2.2v1.3h2.2v8.8c0 2.2.7 2.9 2.8 2.9h1.4zm5-15.4v-2.5H194v2.5h1.6zm0 15.3V17.1H194V30h1.6zm15.8-6.5c0-3.7-2.1-6.8-6.1-6.8-3.9 0-6.1 3.1-6.1 6.8s2.1 6.8 6.1 6.8c3.9.1 6.1-3.1 6.1-6.8zm-1.6 0c0 2.8-1.5 5.5-4.5 5.5s-4.5-2.8-4.5-5.5 1.5-5.5 4.5-5.5 4.5 2.8 4.5 5.5zm15.5 6.5v-8.3c0-3.1-1.1-5-4.7-5-1.8 0-3.6 1-4.1 2.6h-.1v-2.2h-1.6V30h1.6v-7.5c0-2.5 1.6-4.4 4.1-4.4 2.6 0 3.3 1.7 3.3 3.9v8h1.5zm-87.7 29v-8.3c0-3.1-1.1-5-4.7-5-1.8 0-3.6 1-4.1 2.6h-.1v-2.2h-1.6V59h1.6v-7.5c0-2.5 1.6-4.4 4.1-4.4 2.6 0 3.3 1.7 3.3 3.9v8h1.5zm15.5 0V41.2h-1.6v7.4h-.1c-.7-1.8-2.6-2.8-4.5-2.8-3.9 0-5.8 3.2-5.8 6.8s1.9 6.8 5.8 6.8c1.9 0 3.9-1.2 4.6-2.8h.1V59h1.5zm-1.6-6.5c0 2.7-1.2 5.5-4.5 5.5-3 0-4.2-2.8-4.2-5.5S144 47 147 47c3.3 0 4.5 2.9 4.5 5.5zm17.3 0c0-3.7-2.1-6.8-6.1-6.8-3.9 0-6.1 3.1-6.1 6.8s2.1 6.8 6.1 6.8c3.9.1 6.1-3.1 6.1-6.8zm-1.6 0c0 2.8-1.5 5.5-4.5 5.5s-4.5-2.8-4.5-5.5 1.5-5.5 4.5-5.5 4.5 2.8 4.5 5.5zm21.9-6.4h-1.7l-3.3 11h-.1l-3.1-11h-1.8L176 57.2h-.1l-3.3-11H171l4.1 12.9h1.7l3.2-10.8h.1l3.2 10.8h1.7l4.1-13zM209.8 59v-8.8c0-3-1.4-4.5-4.3-4.5-1.7 0-3.3.8-4.1 2.5-.5-1.7-2-2.5-3.7-2.5-2.1 0-3.4 1-4.2 2.5h-.1V46H192v13h1.6v-7.2c0-2.7 1.1-4.8 3.9-4.8 2 0 2.7 1.5 2.7 3.2V59h1.6v-7.3c0-2.4.8-4.7 3.5-4.7 2.2 0 3.1 1.2 3.1 3.3V59h1.4zm15-6c.1-3.6-1.5-7.2-5.7-7.2-4.1 0-5.8 3.4-5.8 6.8 0 3.7 1.7 6.8 5.8 6.8 3.2 0 4.9-1.7 5.6-4.6h-1.6c-.5 2-1.8 3.3-4.1 3.3-3 0-4.2-2.8-4.2-5.1h10zm-1.6-1.3h-8.4c.2-2.3 1.7-4.6 4.2-4.6 2.6 0 4.1 2.2 4.2 4.6zm15.3 7.3v-8.3c0-3.1-1.1-5-4.7-5-1.8 0-3.6 1-4.1 2.6h-.1v-2.2H228V59h1.6v-7.5c0-2.5 1.6-4.4 4.1-4.4 2.6 0 3.3 1.7 3.3 3.9v8h1.5zm9.3.1v-1.3c-.4 0-.9.1-1.4.1-1.1 0-1.3-.7-1.3-1.7v-8.7h2.6v-1.3h-2.6v-3.9h-1.6v3.9h-2.2v1.3h2.2v8.8c0 2.2.7 2.9 2.8 2.9.5 0 1-.1 1.5-.1zM137.3 81.6c0-3.7-2.1-6.8-6.1-6.8-3.9 0-6.1 3.1-6.1 6.8s2.2 6.8 6.1 6.8 6.1-3.2 6.1-6.8zm-1.6 0c0 2.8-1.5 5.5-4.5 5.5s-4.5-2.8-4.5-5.5 1.5-5.5 4.5-5.5 4.5 2.7 4.5 5.5zm15.5 6.4V75.1h-1.6v6.8c0 2.6-1.2 5.2-3.9 5.2-2.5 0-3.4-1.2-3.4-3.6v-8.4h-1.6v8.4c0 3 1.3 4.9 4.5 4.9 1.9 0 3.6-1 4.4-2.7h.1V88h1.5zm14.6 0v-8.3c0-3.1-1.1-5-4.7-5-1.8 0-3.6 1.1-4.1 2.6h-.1v-2.2h-1.6V88h1.6v-7.5c0-2.5 1.6-4.4 4.1-4.4 2.6 0 3.3 1.7 3.3 3.9v8h1.5zm15.5 0V70.2h-1.6v7.4h-.1c-.7-1.8-2.6-2.8-4.5-2.8-3.9 0-5.8 3.2-5.8 6.8 0 3.7 1.9 6.8 5.8 6.8 1.9 0 3.9-1.2 4.6-2.8h.1V88h1.5zm-1.6-6.4c0 2.7-1.2 5.5-4.5 5.5-3 0-4.2-2.8-4.2-5.5s1.2-5.5 4.2-5.5c3.4 0 4.5 2.8 4.5 5.5zm17 6.3v-1.3c-.1.1-.3.1-.5.1-.6 0-.9-.3-.9-.9V79c0-3.4-2.5-4.2-4.8-4.2-2.9 0-5.1 1.3-5.2 4.3h1.6c.1-2.1 1.5-3 3.4-3s3.4.5 3.4 2.7c0 1.4-.7 1.6-2 1.8-3.4.4-6.9.5-6.9 4.2 0 2.6 1.9 3.8 4.3 3.8 2.5 0 3.6-.9 4.7-2.6h.1c0 1.3.2 2.2 1.9 2.2.2-.2.6-.2.9-.3zm-3-4.9c0 2.5-2.1 4.1-4.5 4.1-1.5 0-2.9-1-2.9-2.6 0-2.5 3.3-2.5 6-3 .4-.1 1.1-.2 1.3-.6h.1V83zm11 5.1v-1.3c-.4.1-.9.1-1.4.1-1.1-.1-1.3-.7-1.3-1.7v-8.7h2.6v-1.3H202v-3.9h-1.6v3.9h-2.2v1.3h2.2v8.8c0 2.2.7 2.9 2.8 2.9.6-.1 1-.1 1.5-.1zm5-15.4v-2.5h-1.6v2.5h1.6zm0 15.3V75.1h-1.6V88h1.6zm15.7-6.5c0-3.7-2.1-6.8-6.1-6.8-3.9 0-6.1 3.1-6.1 6.8s2.1 6.8 6.1 6.8c4 .1 6.1-3.1 6.1-6.8zm-1.5 0c0 2.8-1.5 5.5-4.5 5.5s-4.5-2.8-4.5-5.5 1.5-5.5 4.5-5.5 4.5 2.8 4.5 5.5zm15.5 6.5v-8.3c0-3.1-1.1-5-4.7-5-1.8 0-3.6 1.1-4.1 2.6h-.1v-2.2h-1.6V88h1.6v-7.5c0-2.5 1.6-4.4 4.1-4.4 2.6 0 3.3 1.7 3.3 3.9v8h1.5z"></path>
    <path fill="#FF530D" d="M123.9 30v-1.5h-10.8v-7h9.9V20h-9.9v-6.4h10.6v-1.4h-12.3V30h12.5zm0 29v-1.5h-10.8v-7h9.9V49h-9.9v-6.5h10.6V41h-12.3v18h12.5zm-1.1 12.6v-1.4h-11.3V88h1.7v-8.5h8.6v-1.4h-8.6v-6.5h9.6z"></path>
  </g>
</svg>
